<svg xmlns="http://www.w3.org/2000/svg" width="24" height="24" viewBox="0 0 24 24" fill="currentColor" stroke-width="2" stroke-linecap="round" stroke-linejoin="round" class="feather feather-bug">
    <path d="M15 17a2 2 0 0 0-2-2H9a2 2 0 0 0-2 2v2a2 2 0 0 0 2 2h4a2 2 0 0 0 2-2v-2z"></path>
    <path d="M12 15V9"></path>
    <path d="M7 9h10"></path>
    <path d="M3.5 12H2"></path>
    <path d="M22 12h-1.5"></path>
    <path d="M12 3.5V2"></path>
    <path d="m4.93 4.93 1.07 1.07"></path>
    <path d="m18 18 1.07 1.07"></path>
    <path d="m19.07 4.93-1.07 1.07"></path>
    <path d="m6 18-1.07 1.07"></path>
</svg>
